<svg width="960" height="520" viewBox="0 0 960 520" fill="none" xmlns="http://www.w3.org/2000/svg">
  <rect width="960" height="520" rx="32" fill="#F5F7FF"/>
  <circle cx="752" cy="140" r="96" fill="#A78BFA" fill-opacity="0.2"/>
  <circle cx="224" cy="128" r="72" fill="#38BDF8" fill-opacity="0.16"/>
  <rect x="120" y="140" width="320" height="220" rx="24" fill="white" stroke="#DDE7FF" stroke-width="3"/>
  <rect x="150" y="176" width="110" height="18" rx="9" fill="#6C63FF"/>
  <rect x="150" y="208" width="170" height="18" rx="9" fill="#93C5FD"/>
  <rect x="150" y="240" width="140" height="18" rx="9" fill="#A78BFA"/>
  <path d="M602 186C602 164 620 146 642 146H704C726 146 744 164 744 186V310C744 332 726 350 704 350H642C620 350 602 332 602 310V186Z" fill="#6C63FF"/>
  <path d="M610 170C610 145 630 125 655 125H690C715 125 735 145 735 170V172H610V170Z" fill="#8B5CF6"/>
  <path d="M633 182C633 156 655 134 681 134H695C721 134 743 156 743 182V188H633V182Z" fill="#F59E0B"/>
  <path d="M614 294L560 320L560 240L614 214V294Z" fill="#FBBF24"/>
  <path d="M563 314C563 292 581 274 603 274H626C648 274 666 292 666 314V320H563V314Z" fill="#4F46E5"/>
  <path d="M738 172H780C803 172 822 191 822 214V218H738V172Z" fill="#F472B6"/>
  <path d="M730 220C730 196 750 176 774 176H786C810 176 830 196 830 220V231H730V220Z" fill="#FB923C"/>
  <path d="M520 340C520 304 548 276 584 276H636C672 276 700 304 700 340V366H520V340Z" fill="#38BDF8"/>
  <path d="M533 360H686V404C686 418 675 429 661 429H558C544 429 533 418 533 404V360Z" fill="#0F172A"/>
  <circle cx="579" cy="317" r="12" fill="#111827"/>
  <circle cx="640" cy="317" r="12" fill="#111827"/>
  <path d="M590 352C606 368 614 381 614 392" stroke="#111827" stroke-width="8" stroke-linecap="round"/>
  <path d="M629 352C613 368 605 381 605 392" stroke="#111827" stroke-width="8" stroke-linecap="round"/>
  <path d="M548 252C562 215 594 191 635 191C676 191 709 215 723 252" stroke="#22C55E" stroke-width="12" stroke-linecap="round"/>
  <path d="M433 292C433 254 462 225 500 225H512C550 225 579 254 579 292V312H433V292Z" fill="#F8FAFC"/>
  <path d="M443 290C443 258 468 233 500 233H512C544 233 569 258 569 290V304H443V290Z" fill="#FDE68A"/>
  <path d="M453 300H558" stroke="#F59E0B" stroke-width="10" stroke-linecap="round"/>
  <text x="140" y="430" fill="#334155" font-family="Arial, sans-serif" font-size="34" font-weight="700">오늘도 한 단계씩, 즐겁게!</text>
</svg>
